<svg id="Layer_1" data-name="Layer 1" xmlns="http://www.w3.org/2000/svg" xmlns:xlink="http://www.w3.org/1999/xlink" viewBox="0 0 224.63085 224.63085"><defs><style>.cls-1{fill:#fff;}.cls-2{fill:url(#linear-gradient);}.cls-3{fill:url(#linear-gradient-2);}.cls-4{fill:url(#linear-gradient-3);}.cls-5{fill:url(#linear-gradient-4);}.cls-6{fill:url(#linear-gradient-5);}.cls-7{fill:url(#linear-gradient-6);}.cls-8{fill:url(#linear-gradient-7);}</style><linearGradient id="linear-gradient" x1="68.03669" y1="21.32626" x2="195.09698" y2="21.32626" gradientTransform="matrix(1, 0, 0, -1, -40.51064, 195.48936)" gradientUnits="userSpaceOnUse"><stop offset="0" stop-color="#0b0055"/><stop offset="1" stop-color="#007f61"/></linearGradient><linearGradient id="linear-gradient-2" x1="52.34757" y1="61.72346" x2="267.50886" y2="61.72346" xlink:href="#linear-gradient"/><linearGradient id="linear-gradient-3" x1="53.7042" y1="70.96737" x2="264.50892" y2="70.96737" xlink:href="#linear-gradient"/><linearGradient id="linear-gradient-4" x1="78.82192" y1="104.73439" x2="261.95958" y2="104.73439" xlink:href="#linear-gradient"/><linearGradient id="linear-gradient-5" x1="55.07293" y1="30.74139" x2="260.42435" y2="30.74139" xlink:href="#linear-gradient"/><linearGradient id="linear-gradient-6" x1="52.36881" y1="1.2414" x2="267.48029" y2="1.2414" xlink:href="#linear-gradient"/><linearGradient id="linear-gradient-7" x1="20.40564" y1="76.39967" x2="193.44281" y2="76.39967" gradientTransform="matrix(1, 0, 0, 1, 0, 0)" xlink:href="#linear-gradient"/></defs><title>logo</title><circle class="cls-1" cx="112.31542" cy="112.31542" r="112.31542"/><path class="cls-2" d="M54.0349,162.26338a28.5355,28.5355,0,0,0-5.749-.60156,27.9761,27.9761,0,0,0-19.87764,8.09826l-1.53039,1.53039A105.69359,105.69359,0,0,0,38.00672,186.665L55.909,168.76257a3.85816,3.85816,0,0,0-1.87413-6.49919Z" transform="translate(-5.17393 -5.17393)"/><path class="cls-3" d="M159.13616,99.82882a58.8917,58.8917,0,0,0-41.6468,17.66054L95.2029,139.77582a8.56675,8.56675,0,0,0,0,12.11512l13.31632,13.31624a8.521,8.521,0,0,0,12.05047.00012l.00012-.00012,39.61958-39.61952A113.84965,113.84965,0,0,0,172.521,110.92049a6.47846,6.47846,0,0,0-3.91137-10.02541A48.9307,48.9307,0,0,0,159.13616,99.82882Z" transform="translate(-5.17393 -5.17393)"/><path class="cls-4" d="M47.54965,154.29972h.73623c-.10643-.00029-.21209.00636-.3184.00712A35.3296,35.3296,0,0,1,65.21862,158.717l.42623.31.31-.31,12.88361-12.88361-.36811-.36811-61.05-61.05a105.6369,105.6369,0,0,0,5.81239,80.21357l.02211-.02211a35.33313,35.33313,0,0,1,24.71266-10.29982C47.828,154.30737,47.68928,154.29751,47.54965,154.29972Z" transform="translate(-5.17393 -5.17393)"/><path class="cls-5" d="M200.62724,52.74866a121.63925,121.63925,0,0,1-10.3881,41.85545,6.12931,6.12931,0,0,0,2.56081,7.77771,66.90813,66.90813,0,0,1,13.77055,10.69028l15.68913,15.68919a106.53256,106.53256,0,0,0,.601-11.27193A104.91239,104.91239,0,0,0,200.62724,52.74866Z" transform="translate(-5.17393 -5.17393)"/><path class="cls-6" d="M184.83883,106.62284c-.37733.11191-.60471.17936-.982.29133a121.38306,121.38306,0,0,1-18.5139,23.82695L119.18806,176.896a6.567,6.567,0,0,1-9.287,0L87.81721,154.81207a5.40969,5.40969,0,0,0-7.65046,0l0,0-8.55465,8.55465,1.70485,1.23994L110.1364,201.4261a8.3164,8.3164,0,0,1,0,11.76113l-8.488,8.48808A105.48023,105.48023,0,0,0,220.794,138.3387l-20.11314-20.11314A58.88772,58.88772,0,0,0,184.83883,106.62284Z" transform="translate(-5.17393 -5.17393)"/><path class="cls-7" d="M102.02166,203.61827,68.16347,169.76007,66.48068,168.498,46.368,188.61069a5.5979,5.5979,0,0,0-1.484,5.24154,105.15867,105.15867,0,0,0,48.13478,26.14567l9.00288-9.00288A5.21621,5.21621,0,0,0,102.02166,203.61827Z" transform="translate(-5.17393 -5.17393)"/><path class="cls-8" d="M117.48938,12.11812a105.40053,105.40053,0,0,0-97.08374,64.34l63.21429,63.85034.3728.37286,28.3443-28.34424c12.45618-12.59967,29.39581-19.00458,47.11938-19.13843a66.48608,66.48608,0,0,1,15.22852,1.88324,8.00092,8.00092,0,0,0,9.29193-4.50256,114.23426,114.23426,0,0,0,9.46442-46.12067A105.06047,105.06047,0,0,0,117.48938,12.11812ZM94.745,99.82881a29.53,29.53,0,1,1,29.53-29.53A29.53,29.53,0,0,1,94.745,99.82881Z" transform="translate(-5.17393 -5.17393)"/></svg>